<svg width="124" height="127" viewBox="0 0 124 127" fill="none" xmlns="http://www.w3.org/2000/svg">
<path d="M86.7376 68.0193V0.475586H91.9816V68.0193C91.9816 75.3949 89.0592 81.7078 83.2234 86.9489C77.3831 92.1945 70.3774 94.8151 62.211 94.8151C54.04 94.8151 47.0343 92.1945 41.1986 86.9489C35.3719 81.7078 32.4586 75.3949 32.4586 68.0193V0.475586H37.7026V68.0193C37.7026 73.9416 40.0924 79.0192 44.8767 83.2429C49.67 87.4576 55.4466 89.5649 62.211 89.5649C68.9708 89.5649 74.7474 87.4576 79.5453 83.2429C84.3387 79.0192 86.7376 73.9416 86.7376 68.0193ZM97.2438 68.0193V0.475586H102.488V68.0193C102.488 73.0696 101.414 77.8928 99.2649 82.4799C97.1255 87.0579 94.2577 91.0273 90.6524 94.3791C87.0563 97.7218 82.7773 100.383 77.8155 102.354C72.8629 104.316 67.6598 105.297 62.211 105.297C56.7712 105.297 51.5682 104.316 46.6064 102.354C41.6401 100.383 37.3566 97.7218 33.7514 94.3791C30.1552 91.0273 27.292 87.0579 25.157 82.4799C23.0175 77.8928 21.9524 73.0696 21.9524 68.0193V0.475586H27.1964V68.0193C27.1964 73.7963 28.7623 79.1509 31.8941 84.0786C35.035 88.9972 39.2912 92.8894 44.6582 95.7598C50.0342 98.621 55.8836 100.047 62.211 100.047C68.5338 100.047 74.3833 98.621 79.7638 95.7598C85.1398 92.8894 89.396 88.9972 92.5279 84.0786C95.6688 79.1509 97.2438 73.7963 97.2438 68.0193ZM107.75 68.0193V0.475586H112.994V68.0193C112.994 74.4775 111.638 80.6542 108.934 86.5493C106.239 92.4489 102.624 97.5355 98.0996 101.809C93.5839 106.074 88.1852 109.471 81.9124 112.001C75.6351 114.521 69.0664 115.779 62.211 115.779C55.351 115.779 48.7823 114.521 42.5096 112.001C36.2459 109.471 30.8471 106.074 26.3224 101.809C21.793 97.5355 18.1832 92.4489 15.4884 86.5493C12.7936 80.6542 11.4462 74.4775 11.4462 68.0193V0.475586H16.6902V68.0193C16.6902 75.6856 18.7295 82.7842 22.8082 89.3106C26.8959 95.8415 32.4313 101.01 39.4142 104.825C46.3925 108.631 53.9899 110.529 62.211 110.529C70.4275 110.529 78.0249 108.631 85.0078 104.825C91.9862 101.01 97.5215 95.8415 101.614 89.3106C105.702 82.7842 107.75 75.6856 107.75 68.0193ZM118.256 68.0193V0.475586H123.5V68.0193C123.5 78.4969 120.751 88.216 115.252 97.1768C109.762 106.128 102.31 113.213 92.892 118.432C83.4829 123.637 73.2543 126.243 62.211 126.243C51.1767 126.243 40.9482 123.637 31.5299 118.432C22.1208 113.213 14.669 106.128 9.17011 97.1768C3.6803 88.216 0.939941 78.4969 0.939941 68.0193V0.475586H6.18394V68.0193C6.18394 75.1542 7.66337 81.9985 10.6268 88.5476C13.5993 95.1012 17.5869 100.747 22.5897 105.479C27.6015 110.202 33.5738 113.976 40.5067 116.797C47.4349 119.608 54.6727 121.011 62.211 121.011C69.7492 121.011 76.9825 119.608 83.9153 116.797C90.8436 113.976 96.8159 110.202 101.832 105.479C106.844 100.747 110.832 95.1012 113.795 88.5476C116.768 81.9985 118.256 75.1542 118.256 68.0193Z" fill="black"/>
</svg>
