<svg width="36" height="24" viewBox="0 0 36 24" fill="none" xmlns="http://www.w3.org/2000/svg">
<path d="M30.24 10.4303C30.5499 9.65031 30.67 8.81024 30.56 7.98024C30.46 7.15024 30.15 6.35029 29.65 5.66029C29.16 4.98029 28.4899 4.41027 27.7199 4.02028C26.9399 3.63028 26.0799 3.43031 25.1999 3.43031C24.1299 3.43031 23.0899 3.7303 22.1999 4.3003C21.2099 2.6603 19.6799 1.38029 17.8499 0.66029C16.0199 -0.0697103 13.9899 -0.189705 12.0799 0.290295C10.1599 0.780295 8.46997 1.86023 7.25997 3.35023C6.05997 4.85023 5.39998 6.6802 5.39998 8.5702C5.39998 8.7202 5.40999 8.86027 5.40999 9.01027C3.60999 9.61027 2.08996 10.8003 1.11996 12.3703C0.149956 13.9403 -0.200044 15.7902 0.119956 17.5802C0.439956 19.3802 1.41997 21.0103 2.87997 22.1803C4.33997 23.3503 6.18994 24.0003 8.09994 24.0003H28.8C30.58 24.0003 32.3 23.3702 33.63 22.2302C34.95 21.0902 35.7799 19.5202 35.9599 17.8302C36.1399 16.1402 35.6499 14.4502 34.5999 13.0802C33.5399 11.7102 31.99 10.7703 30.24 10.4303ZM22.76 15.1803L16.8399 20.8202C16.6699 20.9802 16.4399 21.0702 16.1999 21.0702C15.9599 21.0702 15.73 20.9802 15.56 20.8202L9.63998 15.1803C9.50998 15.0603 9.41998 14.9002 9.38998 14.7402C9.34998 14.5702 9.3699 14.4002 9.4399 14.2402C9.5099 14.0902 9.61998 13.9502 9.76998 13.8602C9.91998 13.7602 10.09 13.7102 10.27 13.7102H13.9499V7.71022C13.9499 7.49022 14.0499 7.27024 14.2199 7.11024C14.3799 6.95024 14.6099 6.86024 14.8499 6.86024H17.55C17.79 6.86024 18.0199 6.95024 18.1899 7.11024C18.3599 7.27024 18.4499 7.49022 18.4499 7.71022V13.7102H22.13C22.31 13.7102 22.48 13.7602 22.63 13.8602C22.78 13.9502 22.8999 14.0902 22.9599 14.2402C23.0299 14.4002 23.05 14.5702 23.01 14.7402C22.98 14.9002 22.89 15.0603 22.77 15.1803H22.76Z" fill="#233862"/>
</svg>
