<svg width="24" height="24" viewBox="0 0 24 24" fill="none" xmlns="http://www.w3.org/2000/svg">
<path d="M21.285 11.6C21.2853 11 21.4685 10.41 21.8104 9.91003C22.1522 9.41003 22.6367 9.03006 23.2 8.81006C22.9083 7.60006 22.425 6.42999 21.768 5.35999C21.3857 5.52999 20.9723 5.62 20.554 5.62C20.0569 5.63 19.5675 5.50002 19.1304 5.27002C18.6933 5.03002 18.3224 4.69002 18.0516 4.27002C17.7807 3.85002 17.6184 3.37 17.5795 2.88C17.5407 2.38 17.6264 1.89005 17.829 1.43005C16.7642 0.780054 15.6017 0.29 14.385 0C14.1688 0.56 13.787 1.05001 13.2897 1.39001C12.7925 1.73001 12.2034 1.91003 11.6 1.91003C10.9966 1.91003 10.4075 1.73001 9.9103 1.39001C9.413 1.05001 9.0312 0.56 8.815 0C7.5964 0.29 6.4319 0.780054 5.365 1.43005C5.5676 1.89005 5.6533 2.38 5.6145 2.88C5.5756 3.37 5.4133 3.85002 5.1424 4.27002C4.8716 4.69002 4.5007 5.03002 4.0636 5.27002C3.6265 5.50002 3.1371 5.63 2.64 5.62C2.2214 5.63 1.8074 5.53999 1.426 5.35999C0.774501 6.43999 0.2934 7.59995 0 8.81995C0.5627 9.03995 1.0467 9.42004 1.3883 9.92004C1.7299 10.41 1.9131 11 1.9138 11.6C1.9144 12.21 1.7325 12.8 1.392 13.29C1.0514 13.79 0.568201 14.17 0.00600052 14.39C0.297701 15.61 0.781 16.77 1.438 17.84C1.9884 17.6 2.5999 17.52 3.1919 17.63C3.784 17.74 4.3288 18.03 4.7547 18.46C5.1805 18.88 5.4673 19.43 5.5773 20.02C5.6873 20.61 5.6154 21.22 5.371 21.77C6.4384 22.43 7.6028 22.91 8.821 23.21C9.0369 22.64 9.418 22.1599 9.9141 21.8199C10.4102 21.4799 10.9981 21.3 11.6 21.3C12.2019 21.3 12.7898 21.4799 13.2859 21.8199C13.782 22.1599 14.1631 22.64 14.379 23.21C15.5976 22.91 16.7621 22.43 17.829 21.77C17.5863 21.22 17.5157 20.61 17.6263 20.02C17.737 19.43 18.0238 18.89 18.4491 18.46C18.8744 18.04 19.4184 17.75 20.0096 17.64C20.6008 17.53 21.2117 17.6 21.762 17.84C22.418 16.77 22.9013 15.61 23.194 14.39C22.6321 14.17 22.1494 13.79 21.8088 13.29C21.4683 12.79 21.2857 12.2 21.285 11.6ZM11.655 16.4301C10.6991 16.4301 9.7647 16.14 8.9699 15.61C8.1751 15.08 7.5557 14.3299 7.1899 13.4399C6.8241 12.5599 6.7284 11.59 6.9149 10.65C7.1013 9.71002 7.5616 8.85005 8.2376 8.18005C8.9135 7.50005 9.7746 7.03998 10.7121 6.84998C11.6496 6.66998 12.6214 6.76 13.5045 7.13C14.3876 7.49001 15.1424 8.11003 15.6735 8.91003C16.2045 9.70003 16.488 10.64 16.488 11.59C16.4881 12.23 16.3632 12.8599 16.1203 13.4399C15.8774 14.0299 15.5213 14.56 15.0724 15.01C14.6235 15.46 14.0905 15.8201 13.504 16.0601C12.9174 16.3001 12.2898 16.4301 11.655 16.4301Z" fill="#88B2F0"/>
</svg>
