<svg width="23" height="23" viewBox="0 0 23 23" fill="none" xmlns="http://www.w3.org/2000/svg">
<path d="M11.25 12.66C12.5016 12.66 13.725 12.28 14.7657 11.59C15.8063 10.89 16.6174 9.91001 17.0963 8.75001C17.5753 7.59001 17.7006 6.31997 17.4564 5.08997C17.2122 3.86997 16.6096 2.73998 15.7246 1.84998C14.8396 0.969984 13.712 0.370004 12.4845 0.120004C11.257 -0.119996 9.9847 -1.0848e-05 8.8284 0.479989C7.6721 0.959989 6.6838 1.77007 5.9885 2.81007C5.2931 3.85007 4.922 5.07996 4.922 6.32996C4.9225 8.00996 5.5894 9.62006 6.776 10.8001C7.9626 11.9901 9.5719 12.66 11.25 12.66ZM16.875 14.0601H14.454C13.4496 14.5301 12.3566 14.77 11.2505 14.77C10.1444 14.77 9.0515 14.5301 8.047 14.0601H5.625C4.1332 14.0601 2.7024 14.65 1.6475 15.71C0.592601 16.76 2.19392e-06 18.2 2.19392e-06 19.69V20.39C-0.000397806 20.66 0.0539026 20.94 0.159703 21.2C0.265503 21.45 0.420702 21.68 0.616602 21.88C0.812502 22.08 1.0451 22.23 1.3012 22.34C1.5572 22.45 1.8317 22.5 2.109 22.5H20.391C20.9503 22.5 21.4865 22.28 21.882 21.88C22.2775 21.49 22.4997 20.95 22.5 20.39V19.69C22.5005 18.95 22.3554 18.22 22.073 17.54C21.7905 16.85 21.3763 16.23 20.8539 15.71C20.3315 15.19 19.7112 14.77 19.0285 14.49C18.3458 14.21 17.614 14.0601 16.875 14.0601Z" fill="#88B2F0"/>
</svg>
