<svg width="141" height="145" viewBox="0 0 141 145" fill="none" xmlns="http://www.w3.org/2000/svg">
<path d="M98.7321 77.8421V0.383789H104.732V77.8421C104.732 86.3005 101.388 93.54 94.7113 99.5505C88.029 105.566 80.0134 108.571 70.6696 108.571C61.3206 108.571 53.305 105.566 46.6279 99.5505C39.9613 93.54 36.6279 86.3005 36.6279 77.8421V0.383789H42.6279V77.8421C42.6279 84.6338 45.3623 90.4567 50.8363 95.3005C56.3206 100.134 62.93 102.55 70.6696 102.55C78.404 102.55 85.0134 100.134 90.5029 95.3005C95.9873 90.4567 98.7321 84.6338 98.7321 77.8421ZM110.753 77.8421V0.383789H116.753V77.8421C116.753 83.6338 115.524 89.165 113.065 94.4255C110.618 99.6755 107.336 104.228 103.211 108.071C99.0967 111.905 94.2009 114.957 88.5238 117.217C82.8571 119.467 76.904 120.592 70.6696 120.592C64.4456 120.592 58.4925 119.467 52.8154 117.217C47.1331 114.957 42.2321 111.905 38.1071 108.071C33.9925 104.228 30.7165 99.6755 28.2738 94.4255C25.8258 89.165 24.6071 83.6338 24.6071 77.8421V0.383789H30.6071V77.8421C30.6071 84.4671 32.3988 90.6077 35.9821 96.2588C39.5758 101.899 44.4456 106.363 50.5863 109.655C56.7373 112.936 63.43 114.571 70.6696 114.571C77.904 114.571 84.5967 112.936 90.7529 109.655C96.904 106.363 101.774 101.899 105.357 96.2588C108.951 90.6077 110.753 84.4671 110.753 77.8421ZM122.774 77.8421V0.383789H128.774V77.8421C128.774 85.2484 127.222 92.3317 124.128 99.0921C121.045 105.858 116.909 111.691 111.732 116.592C106.565 121.483 100.388 125.379 93.2113 128.28C86.029 131.17 78.5134 132.613 70.6696 132.613C62.8206 132.613 55.305 131.17 48.1279 128.28C40.9613 125.379 34.7842 121.483 29.6071 116.592C24.4248 111.691 20.2946 105.858 17.2113 99.0921C14.1279 92.3317 12.5863 85.2484 12.5863 77.8421V0.383789H18.5863V77.8421C18.5863 86.6338 20.9196 94.7744 25.5863 102.259C30.2633 109.748 36.5967 115.675 44.5863 120.05C52.5706 124.415 61.2633 126.592 70.6696 126.592C80.0706 126.592 88.7634 124.415 96.7529 120.05C104.737 115.675 111.071 109.748 115.753 102.259C120.43 94.7744 122.774 86.6338 122.774 77.8421ZM134.795 77.8421V0.383789H140.795V77.8421C140.795 89.8577 137.649 101.004 131.357 111.28C125.076 121.545 116.55 129.67 105.774 135.655C95.0081 141.623 83.305 144.613 70.6696 144.613C58.0446 144.613 46.3415 141.623 35.5654 135.655C24.7998 129.67 16.2738 121.545 9.9821 111.28C3.70085 101.004 0.56543 89.8577 0.56543 77.8421V0.383789H6.56543V77.8421C6.56543 86.0244 8.25814 93.8734 11.6488 101.384C15.0498 108.899 19.6123 115.373 25.3363 120.8C31.0706 126.217 37.904 130.545 45.8363 133.78C53.7633 137.004 62.0446 138.613 70.6696 138.613C79.2946 138.613 87.5706 137.004 95.5029 133.78C103.43 130.545 110.263 126.217 116.003 120.8C121.737 115.373 126.3 108.899 129.69 101.384C133.091 93.8734 134.795 86.0244 134.795 77.8421Z" fill="white"/>
</svg>
