<svg width="19" height="19" viewBox="0 0 19 19" fill="none" xmlns="http://www.w3.org/2000/svg">
<path d="M18.7301 10.0601L12.7101 18.15C12.5901 18.31 12.4401 18.42 12.2701 18.47C12.1101 18.51 11.9302 18.49 11.7802 18.4C11.6202 18.31 11.4801 18.17 11.3901 17.98C11.3001 17.79 11.2401 17.56 11.2401 17.33V12.71H6.37012C6.26012 12.71 6.15016 12.68 6.04016 12.62C5.94016 12.57 5.84013 12.48 5.76013 12.37C5.68013 12.27 5.62008 12.14 5.58008 12C5.53008 11.86 5.51013 11.7101 5.51013 11.5601V6.93005C5.51013 6.78005 5.53008 6.62999 5.58008 6.48999C5.62008 6.34999 5.68013 6.22 5.76013 6.12C5.84013 6.00999 5.94016 5.92 6.04016 5.87C6.15016 5.81 6.26012 5.78003 6.37012 5.78003H11.2401V1.16003C11.2401 0.930034 11.2901 0.70001 11.3901 0.51001C11.4801 0.32001 11.6202 0.179966 11.7802 0.0899658C11.9302 -3.41833e-05 12.1001 -0.0199805 12.2701 0.0200195C12.4401 0.0700195 12.5901 0.179966 12.7101 0.339966L18.7301 8.43005C18.8901 8.64005 18.9801 8.93999 18.9801 9.23999C18.9801 9.54999 18.8901 9.85006 18.7301 10.0601ZM7.81018 17.91V15.99C7.81018 15.83 7.76018 15.69 7.68018 15.58C7.60018 15.47 7.49013 15.41 7.38013 15.41H4.37012C4.22012 15.41 4.07018 15.37 3.93018 15.29C3.79018 15.21 3.66018 15.1 3.56018 14.96C3.45018 14.81 3.36018 14.64 3.31018 14.46C3.25018 14.27 3.22009 14.07 3.22009 13.87V4.62C3.22009 4.42 3.25018 4.22003 3.31018 4.03003C3.36018 3.85003 3.45018 3.68003 3.56018 3.53003C3.66018 3.39003 3.79018 3.27995 3.93018 3.19995C4.07018 3.11995 4.22012 3.07996 4.37012 3.07996H7.38013C7.49013 3.07996 7.60018 3.02003 7.68018 2.91003C7.76018 2.80003 7.81018 2.65 7.81018 2.5V0.579956C7.81018 0.419956 7.76018 0.280044 7.68018 0.170044C7.60018 0.0600439 7.49013 0 7.38013 0H4.37012C3.45012 0 2.58006 0.489985 1.94006 1.35999C1.29006 2.21999 0.930176 3.4 0.930176 4.62V13.87C0.930176 15.09 1.29006 16.27 1.94006 17.14C2.58006 18 3.45012 18.49 4.37012 18.49H7.38013C7.49013 18.49 7.60018 18.4299 7.68018 18.3199C7.76018 18.2099 7.81018 18.06 7.81018 17.91Z" fill="white"/>
</svg>
